<svg xmlns="http://www.w3.org/2000/svg" version="1.1" xmlns:xlink="http://www.w3.org/1999/xlink" width="4145" height="4145"><svg width="4145" height="4145" viewBox="0 0 4145 4145" fill="none" xmlns="http://www.w3.org/2000/svg">
<rect width="4145" height="4145" rx="2000" fill="white"></rect>
<path d="M2352.86 3035.85C2364.28 3046.47 2376.22 3056.83 2388.17 3066.65C2358.17 3081.26 2327.1 3092.41 2294.44 3101.17C2269.48 3107.81 2241.87 3112.85 2212.39 3115.77C2188.76 3118.16 2163.54 3119.49 2136.99 3119.49C2098.48 3119.49 2062.11 3116.31 2027.59 3109.93C2000.24 3103.56 1974.75 3093.74 1950.59 3081.26C1840.93 3024.43 1766.05 2909.73 1766.05 2778.03V1981.45H1560V1711.41L1814.37 1711.94C1835.88 1645.3 1874.12 1553.16 1943.95 1458.1C2041.4 1325.07 2154.51 1248.87 2225.14 1209.04C2182.66 1258.69 2116.27 1350.56 2079.63 1482.26C2054.14 1574.4 2052.02 1655.12 2055.47 1711.41H2388.44C2345.69 1746.73 2305.86 1786.03 2270.54 1828.51C2231.25 1875.51 2196.99 1927.02 2168.32 1981.45C2104.06 2103.33 2067.95 2242.2 2067.95 2389.3C2067.95 2551.8 2112.03 2703.68 2189.03 2834.05C2223.81 2892.73 2264.97 2947.17 2312.23 2996.29C2325.24 3010.1 2338.78 3023.37 2352.59 3036.12V3035.59L2352.86 3035.85Z" fill="#8DC440"></path>
<path d="M2351.8 3037.72C2363.22 3048.34 2375.17 3058.69 2387.12 3068.52C2380.75 3071.7 2373.84 3074.62 2367.47 3077.28C2008.22 2875.48 1765.26 2490.73 1765.26 2049.17C1765.26 1932.33 1782.25 1820.02 1813.85 1713.54C1835.36 1646.63 1873.59 1554.76 1943.43 1459.7C2040.87 1326.67 2153.99 1250.47 2224.62 1210.64C2182.13 1260.29 2115.75 1352.16 2079.11 1483.86C2053.62 1576 2051.5 1656.72 2054.95 1713.01L2387.92 1713.01C2345.17 1748.33 2305.34 1787.62 2270.02 1830.11C2230.73 1877.11 2196.47 1928.62 2167.8 1983.05C2103.54 2104.93 2067.43 2243.8 2067.43 2390.9C2067.43 2553.4 2111.5 2705.28 2188.51 2835.65C2223.29 2894.33 2264.45 2948.76 2311.71 2997.89C2324.72 3011.69 2338.26 3024.97 2352.07 3037.72H2351.8Z" fill="#64AC6F"></path>
<path opacity="0.44" d="M2388.97 1710.88C2346.22 1746.2 2306.39 1785.49 2271.07 1827.98C2231.78 1874.97 2197.52 1926.49 2168.85 1980.92C2161.41 1995.52 2153.98 2009.86 2147.34 2025C2095.56 1931 2063.96 1823.99 2058.12 1710.61L2388.97 1710.61V1710.88Z" fill="#8DC440"></path>
<path d="M2586 1147.17C2580.16 1309.41 2344.9 1309.68 2339.59 1147.17C2344.64 984.142 2580.69 984.408 2586 1147.17ZM2523.6 1147.17C2520.95 1064.6 2401.2 1064.86 2398.27 1147.17C2400.13 1230.02 2522.27 1230.28 2523.6 1147.17Z" fill="#64AC6F"></path>
<path d="M2365.6 1683.27H2086L2085.2 1653C2082.28 1564.84 2101.13 1476.96 2139.37 1398.63C2198.58 1278.08 2288.33 1207.45 2353.38 1169.74L2384.71 1223.91C2337.72 1251.26 2250.36 1313.92 2195.39 1426.24C2160.08 1498.46 2148.93 1568.03 2147.6 1620.87H2365.33V1683.53L2365.6 1683.27Z" fill="#64AC6F"></path>
</svg><style>@media (prefers-color-scheme: light) { :root { filter: contrast(1) brightness(1); } }
@media (prefers-color-scheme: dark) { :root { filter: none; } }
</style></svg>